<svg width="60" height="60" viewBox="0 0 60 60" fill="none" xmlns="http://www.w3.org/2000/svg">
<path fill-rule="evenodd" clip-rule="evenodd" d="M4 45V15H6V45H4ZM9 15V45H11V15H9ZM49 15V45H51V15H49ZM44 41V19H46V41H44ZM39 22V38H41V22H39ZM34 36V24H36V36H34ZM29 35V25H31V35H29ZM54 45V15H56V45H54ZM14 19V41H16V19H14ZM19 38V22H21V38H19ZM24 24V36H26V24H24Z" fill="url(#paint0_linear)"/>
<path d="M9.79743 43L30 15.2478L50.2026 43H9.79743Z" fill="#FFFDFD" stroke="url(#paint1_linear)" stroke-width="5"/>
<circle cx="30" cy="30" r="29" stroke="url(#paint2_linear)" stroke-width="2"/>
<path d="M29.6145 35.04C29.5479 34.88 29.4579 34.6767 29.3445 34.43C29.2379 34.1833 29.1212 33.9167 28.9945 33.63C28.8679 33.3433 28.7312 33.05 28.5845 32.75C28.4445 32.4433 28.3112 32.1567 28.1845 31.89C28.0579 31.6167 27.9379 31.3733 27.8245 31.16C27.7179 30.9467 27.6312 30.7833 27.5645 30.67C27.4912 31.4567 27.4312 32.31 27.3845 33.23C27.3379 34.1433 27.2979 35.0667 27.2645 36H26.3145C26.3412 35.4 26.3712 34.7967 26.4045 34.19C26.4379 33.5767 26.4745 32.9767 26.5145 32.39C26.5612 31.7967 26.6079 31.22 26.6545 30.66C26.7079 30.1 26.7645 29.57 26.8245 29.07H27.6745C27.8545 29.3633 28.0479 29.71 28.2545 30.11C28.4612 30.51 28.6679 30.93 28.8745 31.37C29.0812 31.8033 29.2812 32.24 29.4745 32.68C29.6679 33.1133 29.8445 33.51 30.0045 33.87C30.1645 33.51 30.3412 33.1133 30.5345 32.68C30.7279 32.24 30.9279 31.8033 31.1345 31.37C31.3412 30.93 31.5479 30.51 31.7545 30.11C31.9612 29.71 32.1545 29.3633 32.3345 29.07H33.1845C33.4112 31.3033 33.5812 33.6133 33.6945 36H32.7445C32.7112 35.0667 32.6712 34.1433 32.6245 33.23C32.5779 32.31 32.5179 31.4567 32.4445 30.67C32.3779 30.7833 32.2879 30.9467 32.1745 31.16C32.0679 31.3733 31.9512 31.6167 31.8245 31.89C31.6979 32.1567 31.5612 32.4433 31.4145 32.75C31.2745 33.05 31.1412 33.3433 31.0145 33.63C30.8879 33.9167 30.7679 34.1833 30.6545 34.43C30.5479 34.6767 30.4612 34.88 30.3945 35.04H29.6145Z" fill="#5D1D7B"/>
<defs>
<linearGradient id="paint0_linear" x1="30" y1="15" x2="30" y2="45" gradientUnits="userSpaceOnUse">
<stop stop-color="#5D5FEF"/>
<stop offset="1" stop-color="#EF5DA8"/>
</linearGradient>
<linearGradient id="paint1_linear" x1="30" y1="11" x2="30" y2="57" gradientUnits="userSpaceOnUse">
<stop stop-color="#080AE2"/>
<stop offset="1" stop-color="#F40A82"/>
</linearGradient>
<linearGradient id="paint2_linear" x1="30" y1="0" x2="30" y2="60" gradientUnits="userSpaceOnUse">
<stop stop-color="#2D2FD5"/>
<stop offset="1" stop-color="#F33396"/>
</linearGradient>
</defs>
</svg>
